<svg xmlns="http://www.w3.org/2000/svg" viewBox="0 0 274 126" fill="none" class="block h-11 sm:h-12 w-auto"><title>ADG logo</title>
  <rect width="274" height="126" fill="none"></rect>
  <path d="M62.3947 60.0148L52.0996 25.9292L41.3866 60.0148H62.3947ZM38.882 4.36443H67.125L99.9595 97.1617H73.3854L67.4028 77.9627H36.3774L30.257 97.1617H4.79639L38.882 4.36443Z" fill="#365BAA"></path>
  <path d="M132.881 75.3985C140.951 75.3985 147.186 73.1028 151.593 68.5114C155.998 63.9199 158.202 57.9618 158.202 50.6335C158.202 46.9256 157.69 43.5619 156.67 40.5473C155.649 37.5338 154.096 34.937 152.011 32.7556C149.923 30.5778 147.301 28.8843 144.15 27.6775C140.996 26.4742 137.239 25.8685 132.881 25.8685H122.863V75.3985H132.881ZM98.2383 4.30486H133.854C140.996 4.30486 147.605 5.23272 153.68 7.08726C159.755 8.94414 165.019 11.7721 169.471 15.5734C173.923 19.3782 177.401 24.2474 179.906 30.1821C182.409 36.1192 183.661 43.1208 183.661 51.1902C183.661 58.8897 182.386 65.5901 179.836 71.2938C177.282 76.9974 173.783 81.7756 169.332 85.6236C164.879 89.4739 159.592 92.3497 153.471 94.2486C147.349 96.151 140.762 97.1022 133.715 97.1022H98.2383V4.30486Z" fill="#365BAA"></path>
  <path d="M233.544 42.295H271.664V84.1723C266.101 88.9026 259.722 92.3106 252.534 94.3986C245.346 96.4854 238.136 97.5276 230.9 97.5276C223.388 97.5276 216.641 96.392 210.659 94.1184C204.676 91.8472 199.597 88.6027 195.424 84.3812C191.251 80.1609 188.072 75.0384 185.894 69.0068C183.714 62.9786 182.625 56.207 182.625 48.6943C182.625 41.6473 183.807 35.1301 186.172 29.1475C188.536 23.1649 191.852 18.0179 196.12 13.7042C200.385 9.39173 205.462 6.03044 211.352 3.61684C217.243 1.20675 223.758 -4.47355e-05 230.9 -4.47355e-05C238.599 -4.47355e-05 245.809 1.27562 252.534 3.82693C259.258 6.37825 264.894 10.6219 269.44 16.5555L253.44 32.6955C250.563 29.8209 247.478 27.4563 244.188 25.5995C240.894 23.7449 237.069 22.8171 232.709 22.8171C228.72 22.8171 225.197 23.5127 222.137 24.9039C219.076 26.2951 216.501 28.1729 214.414 30.5387C212.328 32.9044 210.727 35.6857 209.615 38.8871C208.502 42.0861 207.944 45.4941 207.944 49.1122C207.944 53.1002 208.548 56.6937 209.753 59.894C210.957 63.0942 212.627 65.8311 214.762 68.1023C216.895 70.377 219.493 72.137 222.553 73.3905C225.615 74.6416 229.045 75.2684 232.848 75.2684C235.908 75.2684 238.831 74.8984 241.613 74.1549C244.396 73.4127 247.086 72.116 249.683 70.2591V61.3552H233.544V42.295Z" fill="#365BAA"></path>
  <path d="M9.24822 118.809L7.46487 113.456L5.65701 118.809H9.24822ZM5.8916 108.857H9.13034L15.0219 125.38H11.5008L10.2811 121.813H4.62411L3.42782 125.38H0L5.8916 108.857Z" fill="#1F2A5E"></path>
  <path d="M16.8569 108.95H20.2602V125.379H16.8569V108.95Z" fill="#1F2A5E"></path>
  <path d="M29.2507 116.977C30.9874 116.977 31.9257 115.991 31.9257 114.512V114.489C31.9257 112.847 30.9173 112.025 29.1807 112.025H26.7391V116.977H29.2507ZM23.3369 108.95H29.5086C31.411 108.95 32.9364 109.49 33.9682 110.523C34.861 111.415 35.3535 112.705 35.3535 114.325V114.42C35.3535 116.906 34.1094 118.479 32.3015 119.277L35.7994 125.379H31.9024L28.876 119.981H26.7391V125.379H23.3369V108.95Z" fill="#1F2A5E"></path>
  <path d="M44.0198 118.526H41.0378V122.375H44.0909C45.6152 122.375 46.5781 121.718 46.5781 120.449V120.427C46.5781 119.254 45.7097 118.526 44.0198 118.526ZM45.8731 113.785C45.8731 112.588 45.0281 111.954 43.5739 111.954H41.0378V115.663H43.4094C44.9114 115.663 45.8731 115.051 45.8731 113.808V113.785ZM37.729 108.95H43.8318C45.6631 108.95 47.1873 109.443 48.1268 110.382C48.8551 111.132 49.2298 112.025 49.2298 113.175V113.246C49.2298 115.169 48.1735 116.203 47.0006 116.837C48.7606 117.516 49.9335 118.597 49.9335 120.756V120.874C49.9335 123.83 47.5643 125.379 43.9952 125.379H37.729V108.95Z" fill="#1F2A5E"></path>
  <path d="M62.8225 117.258V117.094C62.8225 113.855 61.1792 111.814 58.9033 111.814C56.6018 111.814 54.983 113.832 54.983 117.07V117.235C54.983 120.474 56.6496 122.516 58.9267 122.516C61.2026 122.516 62.8225 120.497 62.8225 117.258ZM51.4863 117.33V117.047C51.4863 112.118 54.5839 108.668 58.9267 108.668C63.2917 108.668 66.3437 112.094 66.3437 116.999V117.283C66.3437 122.188 63.245 125.662 58.9033 125.662C54.5372 125.662 51.4863 122.235 51.4863 117.33" fill="#1F2A5E"></path>
  <path d="M67.4004 123.174L69.4195 120.662C70.5224 121.625 71.8599 122.517 73.5032 122.517C74.8174 122.517 75.6157 121.858 75.6157 120.897V120.873C75.6157 120.052 75.1465 119.535 72.7995 118.643C69.8887 117.516 68.0808 116.414 68.0808 113.596V113.55C68.0808 110.687 70.2878 108.739 73.4566 108.739C75.3811 108.739 77.2578 109.396 78.7599 110.757L76.8599 113.338C75.827 112.495 74.6295 111.814 73.362 111.814C72.1891 111.814 71.4608 112.401 71.4608 113.245V113.268C71.4608 114.207 72.0245 114.653 74.5828 115.709C77.4469 116.836 78.9957 118.056 78.9957 120.615V120.662C78.9957 123.714 76.672 125.591 73.4787 125.591C71.3908 125.591 69.2083 124.863 67.4004 123.174Z" fill="#1F2A5E"></path>
  <path d="M79.8188 123.174L81.8368 120.662C82.9397 121.625 84.2784 122.517 85.9217 122.517C87.2359 122.517 88.0342 121.858 88.0342 120.897V120.873C88.0342 120.052 87.565 119.535 85.2179 118.643C82.3071 117.516 80.4993 116.414 80.4993 113.596V113.55C80.4993 110.687 82.7063 108.739 85.8738 108.739C87.7984 108.739 89.6763 109.396 91.1784 110.757L89.2771 113.338C88.2454 112.495 87.048 111.814 85.7805 111.814C84.6075 111.814 83.8792 112.401 83.8792 113.245V113.268C83.8792 114.207 84.4418 114.653 87.0013 115.709C89.8642 116.836 91.4141 118.056 91.4141 120.615V120.662C91.4141 123.714 89.0892 125.591 85.8972 125.591C83.8092 125.591 81.6255 124.863 79.8188 123.174Z" fill="#1F2A5E"></path>
  <path d="M102.541 112.194V122.475H104.417C107 122.475 108.761 120.667 108.761 117.405V117.286C108.761 114.024 107 112.194 104.417 112.194H102.541ZM99.1372 109.119H104.442C109.206 109.119 112.281 112.405 112.281 117.217V117.427C112.281 122.239 109.206 125.549 104.442 125.549H99.1372V109.119Z" fill="#355AA9"></path>
  <path d="M114.633 109.12H125.219V112.194H118.013V115.738H124.35V118.812H118.013V122.474H125.312V125.549H114.633V109.12Z" fill="#355AA9"></path>
  <path d="M127.662 109.12H138.248V112.24H131.065V115.925H137.38V119.048H131.065V125.549H127.662V109.12Z" fill="#355AA9"></path>
  <path d="M140.34 109.12H150.925V112.194H143.72V115.738H150.057V118.812H143.72V122.474H151.018V125.549H140.34V109.12Z" fill="#355AA9"></path>
  <path d="M153.37 109.12H156.491L162.781 118.695V109.12H166.114V125.549H163.204L156.702 115.62V125.549H153.37V109.12Z" fill="#355AA9"></path>
  <path d="M167.878 123.342L169.897 120.831C171.001 121.794 172.337 122.685 173.981 122.685C175.295 122.685 176.093 122.028 176.093 121.066V121.042C176.093 120.22 175.624 119.704 173.277 118.812C170.366 117.685 168.56 116.582 168.56 113.766V113.719C168.56 110.855 170.765 108.907 173.934 108.907C175.859 108.907 177.735 109.565 179.237 110.925L177.337 113.507C176.305 112.663 175.107 111.983 173.84 111.983C172.668 111.983 171.938 112.57 171.938 113.414V113.437C171.938 114.375 172.503 114.821 175.06 115.877C177.924 117.005 179.474 118.225 179.474 120.784V120.831C179.474 123.883 177.149 125.759 173.957 125.759C171.868 125.759 169.686 125.032 167.878 123.342Z" fill="#355AA9"></path>
  <path d="M181.659 109.12H192.245V112.194H185.039V115.738H191.378V118.812H185.039V122.474H192.339V125.549H181.659V109.12Z" fill="#355AA9"></path>
  <path d="M199.507 117.621V117.41C199.507 112.551 202.721 109.053 207.181 109.053C209.481 109.053 211.054 109.711 212.556 110.979L210.537 113.631C209.669 112.832 208.707 112.223 207.134 112.223C204.787 112.223 203.004 114.359 203.004 117.386V117.574C203.004 120.953 204.858 122.854 207.275 122.854C208.237 122.854 209.106 122.62 209.716 122.174V119.264H206.735V116.307H212.954V123.912C211.452 125.037 209.551 125.953 207.111 125.953C202.698 125.953 199.507 122.761 199.507 117.621Z" fill="#212B5D"></path>
  <path d="M221.457 117.317C223.192 117.317 224.132 116.33 224.132 114.852V114.828C224.132 113.185 223.124 112.363 221.386 112.363H218.945V117.317H221.457ZM215.542 109.289H221.715C223.616 109.289 225.142 109.828 226.174 110.861C227.067 111.753 227.56 113.044 227.56 114.664V114.758C227.56 117.245 226.314 118.819 224.508 119.616L228.004 125.719H224.109L221.081 120.32H218.945V125.719H215.542V109.289Z" fill="#212B5D"></path>
  <path d="M240.682 117.597V117.432C240.682 114.193 239.04 112.152 236.764 112.152C234.464 112.152 232.844 114.17 232.844 117.41V117.573C232.844 120.813 234.51 122.855 236.786 122.855C239.062 122.855 240.682 120.836 240.682 117.597ZM229.346 117.668V117.386C229.346 112.457 232.444 109.007 236.786 109.007C241.151 109.007 244.204 112.433 244.204 117.339V117.621C244.204 122.527 241.104 126 236.764 126C232.397 126 229.346 122.573 229.346 117.668" fill="#212B5D"></path>
  <path d="M246.366 119.335V109.29H249.77V119.359C249.77 121.682 250.872 122.832 252.634 122.832C254.394 122.832 255.498 121.705 255.498 119.428V109.29H258.878V119.264C258.878 123.794 256.389 125.976 252.587 125.976C248.808 125.976 246.366 123.772 246.366 119.335Z" fill="#212B5D"></path>
  <path d="M266.932 117.668C268.692 117.668 269.679 116.565 269.679 115.039V115.016C269.679 113.302 268.692 112.363 266.886 112.363H265.03V117.668H266.932ZM261.628 109.289H267.097C270.782 109.289 273.105 111.425 273.105 114.921V114.968C273.105 118.748 270.407 120.649 266.956 120.72H265.03V125.718H261.628V109.289Z" fill="#212B5D"></path>
</svg>