<svg xmlns="http://www.w3.org/2000/svg" viewBox="0 0 86 52" width="86" height="52"><style>		.s0 { fill: #231f20 } 	</style><path class="s0" d="m77.9 10.45c1.54 0 2.05 0.85 2.05 2.3v16.65c0 1.44-0.6 2.21-1.88 2.21-1.2 0-1.89-0.77-1.89-2.3v-14.36h-38.6c-1.46 0-2.23 0.68-2.23 1.96 0 1.27 0.77 1.87 2.23 1.87h28.73q1.18-0.02 2.26 0.45 1.07 0.47 1.86 1.33c1.13 1.26 1.71 2.91 1.63 4.59 0.07 1.68-0.52 3.32-1.63 4.59q-0.79 0.87-1.86 1.34-1.08 0.46-2.26 0.44h-57.21c-1.23 0.03-2.46-0.21-3.6-0.68-1.19-0.45-2.22-1.21-3-2.21-1.73-2.16-2.62-4.88-2.49-7.64 0-2.98 0.69-5.52 2.49-7.73 0.81-0.97 1.84-1.72 3-2.21 1.14-0.46 2.37-0.7 3.6-0.68h17.5q0.48-0.04 0.94 0.12 0.46 0.16 0.81 0.49 0.36 0.33 0.55 0.76 0.19 0.44 0.19 0.92 0 0.48-0.19 0.92-0.19 0.44-0.55 0.77-0.35 0.32-0.81 0.48-0.46 0.16-0.94 0.13h-16.98q-0.92 0-1.8 0.25c-2.32 0.6-3.43 2.46-3.43 5.78 0 3.31 1.11 5.27 3.43 5.95q0.88 0.27 1.8 0.26h55.84c1.46 0 2.23-0.6 2.23-1.87 0-1.28-0.77-1.96-2.23-1.96h-28.73q-1.18 0.02-2.26-0.45-1.08-0.47-1.86-1.33c-1.13-1.26-1.71-2.91-1.63-4.59-0.08-1.68 0.5-3.33 1.63-4.59 1.11-1.06 2.57-1.7 4.12-1.78 0.25-0.17 41.17-0.17 41.17-0.18z"></path><path class="s0" d="m81.41 3.31q0 0.66-0.25 1.27-0.26 0.61-0.73 1.08-0.47 0.46-1.08 0.72-0.62 0.25-1.28 0.25-0.67 0-1.28-0.25-0.62-0.26-1.09-0.72-0.47-0.47-0.72-1.08-0.26-0.61-0.26-1.27c0.02-0.87 0.38-1.7 1-2.32 0.62-0.62 1.47-0.97 2.35-0.99 0.88 0.03 1.71 0.39 2.33 1 0.62 0.62 0.98 1.44 1.01 2.31z"></path><path class="s0" d="m29.78 38.66h-1.97q-0.03-0.45-0.35-0.76-0.32-0.32-0.77-0.34c-0.36 0.01-0.7 0.16-0.94 0.42-0.28 0.4-0.4 0.88-0.35 1.36q0 0.52 0.17 1.02c0.09 0.26 0.26 0.34 0.35 0.51q0.32 0.18 0.69 0.17 0.45-0.03 0.77-0.34 0.31-0.32 0.34-0.76h2.06c-0.09 0.34-0.17 0.76-0.26 1.01q-0.26 0.46-0.6 0.85-0.44 0.42-1.03 0.6-0.62 0.25-1.28 0.25-0.71 0-1.38-0.25-0.56-0.22-1.03-0.6-0.48-0.36-0.68-0.93-0.32-0.71-0.34-1.48-0.03-0.77 0.25-1.49 0.2-0.61 0.69-1.02 0.41-0.43 0.94-0.68 0.7-0.31 1.46-0.35 0.67 0 1.29 0.26 0.55 0.22 1.02 0.59 0.35 0.44 0.61 0.94c0.24 0.28 0.36 0.65 0.34 1.02z"></path><path class="s0" d="m34.32 42.65q-0.67 0.03-1.29-0.21-0.63-0.25-1.11-0.72-0.46-0.48-0.71-1.1-0.24-0.62-0.23-1.28-0.01-0.66 0.26-1.27 0.25-0.54 0.6-1.02 0.3-0.41 0.77-0.6 0.4-0.25 0.86-0.34 0.5-0.16 1.03-0.17 0.88 0.03 1.71 0.34 0.76 0.39 1.2 1.11c0.32 0.5 0.47 1.1 0.43 1.7q-0.04 0.87-0.34 1.69c-0.23 0.51-0.62 0.93-1.12 1.19-0.57 0.48-1.31 0.72-2.06 0.68zm0-1.53q0.36-0.02 0.69-0.17 0.33-0.21 0.43-0.59 0.22-0.49 0.17-1.02 0.03-0.39-0.09-0.76-0.1-0.27-0.25-0.51c-0.09-0.17-0.26-0.26-0.35-0.34q-0.24-0.15-0.51-0.17-0.39 0.01-0.69 0.25-0.33 0.22-0.43 0.6-0.22 0.48-0.17 1.02 0.02 0.75 0.35 1.44 0.39 0.24 0.85 0.25z"></path><path class="s0" d="m39.04 42.57v-6.46h2.49l1.2 4 1.11-4h2.49v6.46h-1.88v-3.65l-0.95 3.65h-1.54l-1.03-3.65v3.65z"></path><path class="s0" d="m48.05 42.57v-6.46h3.17q0.9-0.02 1.72 0.34 0.33 0.22 0.53 0.55 0.2 0.34 0.24 0.73-0.03 0.42-0.26 0.78-0.23 0.36-0.6 0.58c0.32 0.06 0.59 0.24 0.78 0.51q0.19 0.21 0.28 0.47 0.08 0.27 0.06 0.55-0.01 0.4-0.17 0.76c-0.09 0.26-0.26 0.34-0.35 0.51-0.08 0.09-0.34 0.25-0.42 0.34-0.26 0.09-0.35 0.17-0.6 0.26q-0.51 0.12-1.03 0.08zm2.05-5.01v1.1h0.78q0.36 0.01 0.68-0.17 0.11-0.05 0.17-0.14 0.07-0.09 0.09-0.2c0-0.17 0-0.25-0.09-0.34q-0.15-0.16-0.34-0.26-0.3-0.06-0.6-0.08h-0.69zm0 2.38v1.19h0.86q0.45 0 0.86-0.17 0.12-0.06 0.19-0.18 0.07-0.11 0.07-0.25 0-0.13-0.07-0.25-0.07-0.11-0.19-0.17-0.41-0.19-0.86-0.17z"></path><path class="s0" d="m57.57 36.11h-2.15v6.29h2.15z"></path><path class="s0" d="m59.37 42.57v-6.46h1.97l2.15 3.49v-3.49h1.97v6.46h-1.97l-2.06-3.31v3.31z"></path><path class="s0" d="m67.26 42.57v-6.46h5.23v1.53h-3.17v0.94h2.66v1.44h-2.66v1.02h3.34v1.53z"></path><path class="s0" d="m74.04 42.57v-6.46h2.91c0.57-0.04 1.13 0.08 1.63 0.34 0.47 0.22 0.86 0.58 1.12 1.02 0.31 0.54 0.43 1.17 0.34 1.79q-0.01 0.64-0.17 1.27-0.24 0.46-0.43 0.94-0.25 0.37-0.63 0.61-0.38 0.25-0.83 0.32-0.59 0.16-1.2 0.17zm2.06-1.61h0.52q0.48-0.01 0.94-0.17c0.26-0.09 0.34-0.34 0.43-0.51q0.17-0.45 0.17-0.94 0.02-0.35-0.08-0.68-0.11-0.26-0.26-0.51c-0.09-0.17-0.26-0.25-0.35-0.34q-0.41-0.19-0.85-0.17h-0.52v3.32z"></path><path class="s0" d="m36.04 46.99h-1.97c-0.09-0.17-0.17-0.34-0.35-0.34q-0.24-0.15-0.51-0.17-0.29-0.02-0.52 0.17-0.08 0.06-0.12 0.15-0.05 0.09-0.05 0.19-0.01 0.07 0.02 0.13 0.02 0.07 0.07 0.12 0.33 0.2 0.68 0.34l0.86 0.26c0.61 0.09 1.17 0.36 1.63 0.76q0.22 0.22 0.33 0.51 0.11 0.29 0.1 0.6-0.01 0.54-0.26 1.02-0.2 0.42-0.6 0.68-0.41 0.32-0.94 0.34-0.55 0.15-1.12 0.17-0.61-0.01-1.2-0.17l-1.03-0.51q-0.37-0.33-0.6-0.77-0.16-0.36-0.17-0.76h2.06q0.03 0.14 0.12 0.25 0.09 0.11 0.23 0.17 0.31 0.18 0.68 0.17 0.33 0.01 0.6-0.17 0.08-0.06 0.13-0.15 0.04-0.09 0.04-0.19 0-0.1-0.04-0.19-0.05-0.09-0.13-0.15-0.32-0.19-0.68-0.25l-0.78-0.17c-0.34-0.09-0.77-0.26-1.03-0.34q-0.46-0.2-0.77-0.6-0.2-0.49-0.25-1.02-0.01-0.54 0.25-1.02 0.2-0.42 0.6-0.68 0.38-0.3 0.86-0.34c0.35 0 0.6-0.08 1.03-0.08q0.53 0 1.03 0.17 0.43 0.06 0.77 0.34 0.25 0.18 0.43 0.42 0.22 0.23 0.35 0.51c0.17 0.17 0.17 0.34 0.25 0.6z"></path><path class="s0" d="m36.98 45.12h2.41l1.03 2.12 1.11-2.12h2.31l-2.31 4.08v2.29h-2.14v-2.29z"></path><path class="s0" d="m50.28 46.99h-1.97c-0.09-0.17-0.18-0.34-0.35-0.34q-0.24-0.15-0.51-0.17-0.29-0.02-0.52 0.17-0.08 0.06-0.12 0.15-0.05 0.09-0.05 0.19-0.01 0.07 0.01 0.13 0.03 0.07 0.08 0.12 0.32 0.2 0.68 0.34l0.86 0.26c0.61 0.09 1.17 0.36 1.63 0.76q0.21 0.22 0.33 0.51 0.11 0.29 0.1 0.6-0.01 0.54-0.26 1.02-0.2 0.42-0.6 0.68-0.41 0.32-0.94 0.34c-0.76 0.23-1.56 0.23-2.32 0l-1.03-0.51q-0.37-0.33-0.6-0.77-0.16-0.36-0.17-0.76h2.06q0.03 0.14 0.12 0.25 0.09 0.11 0.22 0.17 0.32 0.18 0.69 0.17 0.33 0.01 0.6-0.17 0.08-0.06 0.13-0.15 0.04-0.09 0.04-0.19 0-0.1-0.04-0.19-0.05-0.09-0.13-0.15-0.32-0.19-0.69-0.25l-0.77-0.17c-0.34-0.09-0.77-0.26-1.03-0.34q-0.46-0.2-0.77-0.6-0.28-0.42-0.26-0.93 0-0.55 0.26-1.02 0.2-0.43 0.6-0.68 0.38-0.31 0.86-0.34 0.51-0.11 1.03-0.09 0.53 0 1.03 0.17 0.43 0.07 0.77 0.34 0.25 0.18 0.43 0.43 0.22 0.22 0.34 0.51 0.14 0.08 0.21 0.21 0.07 0.14 0.05 0.3z"></path><path class="s0" d="m51.56 45.12h5.84v1.69h-1.89v4.68h-2.06v-4.67h-1.89z"></path><path class="s0" d="m58.85 51.49v-6.37h5.15v1.44h-3.18v0.93h2.75v1.45h-2.75v1.02h3.35v1.53z"></path><path class="s0" d="m65.63 51.49v-6.37h2.57l1.12 3.99 1.11-3.99h2.58v6.37h-1.89v-3.65l-1.11 3.65h-1.38l-1.11-3.65v3.65z"></path><path class="s0" d="m76.18 45.12q0.51-0.11 1.03-0.09 0.53 0 1.03 0.17 0.43 0.07 0.77 0.35 0.25 0.17 0.43 0.42 0.22 0.23 0.34 0.51 0.17 0.28 0.18 0.59h-1.98c-0.08-0.17-0.17-0.34-0.34-0.34q-0.24-0.14-0.52-0.17-0.28 0.01-0.51 0.17-0.08 0.06-0.13 0.15-0.04 0.09-0.04 0.19-0.01 0.07 0.01 0.14 0.02 0.07 0.07 0.12 0.33 0.2 0.69 0.34l0.86 0.26c0.6 0.09 1.17 0.36 1.63 0.76q0.21 0.22 0.32 0.51 0.12 0.29 0.11 0.59-0.01 0.54-0.26 1.02-0.2 0.43-0.6 0.68-0.42 0.33-0.94 0.35c-0.76 0.22-1.57 0.22-2.32 0l-1.03-0.51q-0.37-0.33-0.6-0.77-0.16-0.36-0.17-0.76h2.06q0.03 0.14 0.12 0.25 0.09 0.11 0.22 0.17 0.32 0.18 0.69 0.17 0.33 0.01 0.6-0.17 0.08-0.06 0.13-0.15 0.04-0.09 0.04-0.19 0-0.1-0.04-0.19-0.05-0.09-0.13-0.15-0.32-0.19-0.69-0.25l-0.77-0.17c-0.34-0.09-0.77-0.26-1.03-0.34q-0.46-0.2-0.77-0.6-0.28-0.43-0.26-0.93-0.01-0.55 0.26-1.02 0.2-0.43 0.6-0.68 0.4-0.38 0.94-0.43z"></path><path class="s0" d="m85.02 49.79q-0.01 0.5-0.26 0.94c-0.14 0.3-0.38 0.54-0.69 0.68q-0.44 0.24-0.94 0.25-0.51 0.01-0.94-0.25c-0.31-0.14-0.56-0.38-0.69-0.68q-0.26-0.44-0.26-0.94 0-0.5 0.26-0.93c0.13-0.31 0.38-0.55 0.69-0.68q0.43-0.25 0.94-0.26 0.5 0.01 0.94 0.26c0.31 0.13 0.55 0.37 0.69 0.68q0.25 0.43 0.26 0.93zm-0.26 0q-0.01-0.46-0.26-0.85-0.23-0.36-0.6-0.59-0.39-0.27-0.86-0.26-0.46 0.01-0.85 0.26-0.37 0.23-0.61 0.59-0.26 0.39-0.25 0.85 0.01 0.46 0.25 0.85 0.24 0.36 0.61 0.6 0.38 0.26 0.85 0.25 0.47-0.01 0.86-0.25 0.37-0.24 0.6-0.6 0.27-0.38 0.26-0.85zm-1.03 1.11l-0.52-0.85h-0.34v0.85h-0.35v-2.13h0.78q0.29-0.01 0.51 0.17 0.12 0.06 0.19 0.18 0.07 0.11 0.07 0.25-0.01 0.24-0.17 0.42c-0.09 0.09-0.26 0.17-0.35 0.26l0.51 0.93-0.34-0.08zm-0.09-1.53q0-0.1-0.04-0.19-0.05-0.09-0.13-0.15-0.16-0.11-0.34-0.09h-0.43v0.76h0.43c0.17 0 0.25 0 0.34-0.08 0.17 0 0.17-0.09 0.17-0.25z"></path></svg>