<svg width="204" height="26" viewBox="0 0 204 26" fill="none" xmlns="http://www.w3.org/2000/svg">
<g clip-path="url(#clip0_4449_1050)">
<path d="M201.056 7.94446V8.80029H201.448C201.672 8.80029 201.833 8.76838 201.934 8.70201C202.039 8.63564 202.089 8.52842 202.089 8.38482C202.089 8.23293 202.037 8.12188 201.929 8.04976C201.822 7.97956 201.654 7.94382 201.419 7.94382H201.056V7.94446ZM200.46 7.57621H201.527C201.912 7.57621 202.205 7.63876 202.403 7.76385C202.601 7.88766 202.701 8.07338 202.701 8.31589C202.701 8.51502 202.647 8.68031 202.541 8.81051C202.433 8.9407 202.282 9.02622 202.083 9.06834L202.701 10.3039H202.037L201.486 9.16471H201.056V10.3039H200.46V7.57685V7.57621ZM201.47 6.91886C201.184 6.91886 200.92 6.968 200.672 7.06692C200.424 7.16712 200.204 7.31455 200.006 7.50792C199.803 7.71215 199.645 7.94382 199.535 8.19655C199.424 8.4512 199.37 8.71414 199.37 8.98793C199.37 9.26172 199.422 9.52147 199.527 9.77037C199.631 10.0167 199.782 10.2407 199.978 10.4373C200.178 10.6364 200.406 10.7896 200.658 10.8968C200.913 11.0034 201.171 11.0557 201.438 11.0557C201.726 11.0557 201.999 11.0047 202.258 10.9025C202.518 10.7998 202.75 10.6498 202.956 10.4507C203.154 10.2605 203.305 10.0448 203.411 9.79909C203.519 9.55338 203.572 9.29427 203.572 9.02048C203.572 8.73009 203.521 8.45885 203.42 8.20931C203.321 7.95786 203.17 7.73385 202.973 7.53473C202.765 7.33369 202.536 7.17989 202.282 7.07586C202.028 6.97055 201.758 6.91822 201.47 6.91822M201.469 6.55444C201.807 6.55444 202.13 6.61507 202.431 6.73889C202.733 6.86078 203.002 7.0414 203.238 7.28009C203.466 7.50792 203.643 7.76895 203.762 8.0587C203.882 8.34908 203.942 8.65606 203.942 8.9841C203.942 9.31214 203.88 9.63379 203.757 9.92737C203.633 10.2235 203.453 10.4813 203.217 10.7079C202.976 10.9389 202.706 11.1151 202.405 11.237C202.106 11.3601 201.794 11.4214 201.469 11.4214C201.143 11.4214 200.826 11.3589 200.524 11.2325C200.222 11.1049 199.954 10.9242 199.717 10.6881C199.484 10.4558 199.306 10.1935 199.184 9.90184C199.061 9.61082 199 9.30384 199 8.9841C199 8.66436 199.063 8.35036 199.191 8.04976C199.32 7.74917 199.504 7.48112 199.744 7.24498C199.976 7.01587 200.237 6.84419 200.527 6.72867C200.819 6.61124 201.133 6.55444 201.469 6.55444Z" fill="#142562"/>
<path d="M61.5251 11.1158C61.5251 11.2185 61.4415 11.3021 61.3394 11.3021H53.7645C53.6624 11.3021 53.5781 11.2185 53.5781 11.1158V6.70003C53.5781 6.59728 53.4945 6.51367 53.3924 6.51367H51.3118C51.2097 6.51367 51.1255 6.59728 51.1255 6.70003V19.2785C51.1255 19.3812 51.2091 19.4648 51.3118 19.4648H53.3924C53.4945 19.4648 53.5781 19.3812 53.5781 19.2785V13.6999C53.5781 13.5971 53.6617 13.5135 53.7645 13.5135H61.3394C61.4415 13.5135 61.5251 13.5978 61.5251 13.6999V19.2785C61.5251 19.3812 61.6087 19.4648 61.7108 19.4648H63.7901C63.8922 19.4648 63.9764 19.3812 63.9764 19.2785V6.70067C63.9764 6.59792 63.8928 6.51431 63.7901 6.51431H61.7108C61.6087 6.51431 61.5251 6.59792 61.5251 6.70067V11.1164V11.1158Z" fill="#142562"/>
<path d="M77.9345 14.5288C77.9766 15.629 77.5356 16.3445 76.7142 16.841C75.9567 17.2979 75.09 17.603 73.3241 17.603C71.5582 17.603 70.6857 17.2979 69.918 16.841C69.0838 16.3445 68.6345 15.5537 68.6792 14.5288V6.70052C68.6792 6.59777 68.5956 6.51416 68.4935 6.51416H66.4129C66.3108 6.51416 66.2272 6.5984 66.2272 6.70052V15.0342C66.1608 16.483 66.9082 17.6975 68.2516 18.5507C69.6959 19.4615 71.2116 19.8489 73.3247 19.8489C75.4378 19.8489 76.9485 19.4602 78.364 18.5507C79.7081 17.7096 80.4312 16.5857 80.389 15.0342V6.70052C80.389 6.59777 80.3054 6.51416 80.2027 6.51416H78.1208C78.0187 6.51416 77.9351 6.5984 77.9351 6.70052V14.5288H77.9345Z" fill="#142562"/>
<path d="M95.8307 6.70052C95.8307 6.59777 95.7471 6.51416 95.645 6.51416H82.6817C82.5796 6.51416 82.4954 6.59777 82.4954 6.70052V8.53983C82.4954 8.64194 82.579 8.72555 82.6817 8.72555H87.751C87.8531 8.72555 87.9367 8.80915 87.9367 8.9119V19.2783C87.9367 19.3811 88.0203 19.4647 88.1224 19.4647H90.2017C90.3038 19.4647 90.3874 19.3811 90.3874 19.2783V8.9119C90.3874 8.80915 90.471 8.72555 90.5732 8.72555H95.6437C95.7458 8.72555 95.8294 8.64194 95.8294 8.53983V6.70052H95.8307Z" fill="#142562"/>
<path d="M100.183 9.66505C101.263 8.79837 102.686 8.35864 104.409 8.35864C106.691 8.35864 108.437 8.99175 109.78 10.3856C109.831 10.4379 109.895 10.3958 109.991 10.362L111.886 9.69569C111.982 9.66186 112.029 9.59294 111.991 9.54379C110.249 7.2571 107.658 6.11279 104.409 6.11279C102.152 6.11279 100.231 6.69292 98.6983 7.83659C96.9266 9.15385 96.0293 10.8757 96.0293 12.9537C96.0293 15.0317 96.9151 16.8028 98.6632 18.1066C100.184 19.2375 102.117 19.8125 104.409 19.8125C106.042 19.8125 107.461 19.5598 108.64 19.0958C110.6 18.3262 111.857 16.723 111.894 16.6815C111.931 16.6394 111.887 16.5641 111.797 16.5156L110.011 15.541C109.921 15.4925 109.856 15.4402 109.804 15.4989C108.767 16.663 106.791 17.6292 104.533 17.5686C102.703 17.5195 101.233 17.1365 100.165 16.2871C99.1055 15.4466 98.57 14.324 98.57 12.9537C98.57 11.5835 99.1112 10.5228 100.181 9.66505" fill="#142562"/>
<path d="M124.184 11.1158C124.184 11.2185 124.101 11.3021 123.998 11.3021H116.424C116.321 11.3021 116.238 11.2185 116.238 11.1158V6.70003C116.238 6.59728 116.154 6.51367 116.052 6.51367H113.972C113.869 6.51367 113.785 6.59728 113.785 6.70003V19.2785C113.785 19.3812 113.869 19.4648 113.972 19.4648H116.052C116.154 19.4648 116.238 19.3812 116.238 19.2785V13.6999C116.238 13.5971 116.321 13.5135 116.424 13.5135H123.998C124.101 13.5135 124.184 13.5978 124.184 13.6999V19.2785C124.184 19.3812 124.268 19.4648 124.37 19.4648H126.449C126.552 19.4648 126.635 19.3812 126.635 19.2785V6.70067C126.635 6.59792 126.552 6.51431 126.449 6.51431H124.37C124.268 6.51431 124.184 6.59792 124.184 6.70067V11.1164V11.1158Z" fill="#142562"/>
<path d="M129.302 19.2783C129.302 19.3811 129.385 19.4647 129.487 19.4647H131.568C131.671 19.4647 131.754 19.3811 131.754 19.2783V6.70052C131.754 6.59777 131.671 6.51416 131.568 6.51416H129.487C129.385 6.51416 129.302 6.59777 129.302 6.70052V19.2789V19.2783Z" fill="#142562"/>
<path d="M145.542 16.1026C145.542 16.2053 145.489 16.2245 145.423 16.146L137.463 6.71009C137.397 6.63223 137.333 6.55564 137.319 6.54096C137.307 6.52629 137.212 6.51416 137.11 6.51416H134.608C134.505 6.51416 134.421 6.59777 134.421 6.70052V19.2789C134.421 19.3817 134.505 19.4653 134.608 19.4653H136.69C136.792 19.4653 136.875 19.3817 136.875 19.2789V9.5533C136.875 9.45055 136.93 9.43013 136.997 9.50863L145.405 19.3243C145.471 19.4021 145.61 19.4659 145.713 19.4659H147.776C147.879 19.4659 147.962 19.3823 147.962 19.2796V6.70052C147.962 6.59777 147.879 6.51416 147.776 6.51416H145.694C145.591 6.51416 145.508 6.59777 145.509 6.70052L145.542 16.1026Z" fill="#142562"/>
<path d="M177.7 16.2973C176.645 17.1519 175.539 17.5852 173.767 17.5852C171.995 17.5852 170.869 17.1544 169.807 16.305C168.755 15.4651 168.222 14.3425 168.222 12.9729C168.222 11.6033 168.767 10.5394 169.843 9.67527C170.929 8.80347 172.031 8.35928 173.767 8.35928C175.355 8.35928 176.372 8.74859 177.434 9.51508C178.658 10.3952 179.278 11.558 179.278 12.9729C179.278 14.3878 178.748 15.451 177.7 16.2973M179.152 7.85446C177.619 6.69931 176.026 6.11279 173.767 6.11279C171.508 6.11279 169.923 6.69931 168.367 7.85446C166.585 9.18385 165.682 10.9057 165.682 12.9722C165.682 15.0388 166.573 16.8021 168.332 18.1066C169.866 19.2509 171.477 19.8291 173.767 19.8291C176.057 19.8291 177.637 19.2554 179.168 18.1232C180.926 16.8181 181.818 15.0834 181.818 12.9716C181.818 10.8598 180.92 9.18321 179.152 7.85382" fill="#142562"/>
<path d="M194.774 6.51416C194.671 6.51416 194.588 6.5984 194.588 6.70052L194.62 16.1026C194.62 16.2053 194.567 16.2245 194.5 16.146L186.542 6.71009C186.477 6.63223 186.412 6.55564 186.399 6.54096C186.385 6.52629 186.29 6.51416 186.188 6.51416H183.686C183.583 6.51416 183.5 6.5984 183.5 6.70052V19.2789C183.5 19.3817 183.584 19.4653 183.686 19.4653H185.767C185.87 19.4653 185.953 19.3811 185.953 19.2789V9.5533C185.953 9.45055 186.008 9.43013 186.075 9.50863L194.482 19.3243C194.549 19.4021 194.687 19.4659 194.79 19.4659H196.855C196.958 19.4659 197.042 19.3817 197.042 19.2796V6.70052C197.042 6.5984 196.958 6.51416 196.855 6.51416H194.774Z" fill="#142562"/>
<path d="M163.213 12.8407C162.425 12.2568 161.202 11.8547 159.575 11.6415C159.006 11.5713 157.855 11.4788 156.059 11.362C154.877 11.2931 154.016 11.1674 153.5 10.9867C152.825 10.7551 152.496 10.406 152.496 9.92094C152.496 9.43591 152.806 9.09255 153.443 8.81557C154.114 8.52391 155.105 8.37712 156.387 8.37712C158.384 8.37712 161.075 8.7192 163.372 9.76203C163.437 9.79139 163.489 9.73522 163.489 9.63247V7.49895C163.489 7.3962 163.496 7.31706 163.441 7.29153C161.979 6.62014 158.755 6.2002 156.547 6.2002C154.473 6.2002 152.839 6.5544 151.69 7.25324C150.515 7.96803 149.92 8.9598 149.92 10.1998C149.92 11.4399 150.452 12.2912 151.498 12.8069C152.366 13.2332 153.883 13.5192 156.007 13.6602C158.373 13.8102 159.839 13.9544 160.366 14.0897C161.333 14.3393 161.801 14.8115 161.801 15.5365C161.801 16.1594 161.443 16.6425 160.706 17.0114C159.906 17.4033 158.745 17.626 157.291 17.6037C155.171 17.5705 152.437 17.0925 150.188 15.7012C150.118 15.6578 150.061 15.7025 150.061 15.8052V17.7798C150.061 17.8826 150.052 17.9738 150.098 17.9904C150.121 17.9987 152.464 19.7608 157.273 19.7608C159.547 19.7608 161.321 19.3849 162.546 18.6401C163.797 17.8768 164.433 16.7874 164.433 15.3968C164.433 14.3003 164.02 13.4413 163.214 12.8407" fill="#142562"/>
<path d="M42.3658 1.19141H41.7097V24.8006H42.3658V1.19141Z" fill="#142562"/>
<path d="M7.43774 8.13418H0.203024C0.070915 8.13418 0.00517971 8.29373 0.0983579 8.38691L2.77308 11.0616C3.3513 11.6399 4.28883 11.6399 4.86704 11.0616L7.54241 8.38627C7.63558 8.2931 7.56985 8.13354 7.43774 8.13354" fill="#E00025"/>
<path d="M5.86115 14.15L15.6449 23.9331C16.8013 25.0895 18.6757 25.0889 19.8321 23.9331L31.847 11.9163C33.2453 10.5173 32.2548 8.12598 30.277 8.12598H18.9833C18.1964 8.12598 17.4421 8.43934 16.8862 8.99649L14.0353 11.8563C13.9421 11.9495 14.0085 12.109 14.1406 12.109L24.807 12.0975C25.1369 12.0975 25.3022 12.4958 25.0693 12.7294L18.7861 19.0157C18.2079 19.5939 17.2704 19.5939 16.6922 19.0157L11.8373 14.1609C11.2597 13.5833 11.2591 12.6477 11.8354 12.0695L17.8422 6.04414C18.3975 5.48699 19.1525 5.17363 19.9387 5.17363H31.3965C32.1834 5.17363 32.9384 4.86027 33.4936 4.30312L36.3438 1.44267C36.437 1.34949 36.3706 1.18994 36.2392 1.18994H17.9539C17.1683 1.18994 16.4152 1.50202 15.8599 2.05726L5.86115 12.0567C5.28294 12.6349 5.28294 13.5724 5.86115 14.15Z" fill="#E00025"/>
</g>
<defs>
<clipPath id="clip0_4449_1050">
<rect width="203.887" height="23.6111" fill="white" transform="translate(0.0546875 1.18945)"/>
</clipPath>
</defs>
</svg>
