<svg width="284" height="41" viewBox="0 0 284 41" fill="none" xmlns="http://www.w3.org/2000/svg">
<g clip-path="url(#clip0_420_1959)">
<path d="M167.732 29.1984V28.6259C167.732 27.8045 168.058 27.2568 169.458 27.1075C170.858 26.983 182.886 27.2569 182.886 27.2569V23.3986C182.886 23.3986 177.685 23.1995 173.234 23.1995C171.333 23.1995 169.583 23.2493 168.458 23.3737C164.532 23.8218 162.906 25.6638 162.906 28.4517C162.906 30.9658 164.006 32.3349 166.632 32.9323C169.058 33.455 179.635 34.3511 179.635 34.3511V34.8987C179.635 35.8197 179.16 36.3922 177.91 36.5665C176.635 36.7905 163.181 36.442 163.181 36.442V40.4496C163.181 40.4496 170.408 40.6487 175.659 40.6487C177.16 40.6487 178.435 40.6238 179.26 40.574C182.836 40.35 184.562 38.3088 184.562 35.4462C184.562 32.6085 183.762 31.339 181.011 30.7416C178.21 30.1443 167.732 29.1984 167.732 29.1984ZM237.751 29.1736L244.128 38.0352H247.478L253.83 29.1736V40.4746H258.631V23.4235H253.18L246.853 32.1606C246.728 32.3348 246.528 32.4344 246.328 32.4344H245.403C245.203 32.4344 245.003 32.3348 244.878 32.1606L238.501 23.4235H232.95V40.4746H237.751L237.751 29.1736ZM210.644 40.4497H229.324V36.7159H215.445V33.679H226.448V30.0448H215.445V27.0826H229.199V23.3986H210.644V40.4497ZM186.162 27.2818H194.364V40.4497H199.166V27.2818H207.368V23.3986H186.162L186.162 27.2818ZM266.633 29.1984V28.6259C266.633 27.8045 266.959 27.2568 268.359 27.1075C269.759 26.983 281.787 27.2569 281.787 27.2569V23.3986C281.787 23.3986 276.586 23.1995 272.135 23.1995C270.234 23.1995 268.484 23.2493 267.359 23.3737C263.433 23.8218 261.807 25.6638 261.807 28.4517C261.807 30.9658 262.907 32.3349 265.533 32.9323C267.959 33.455 278.537 34.3511 278.537 34.3511V34.8987C278.537 35.8197 278.061 36.3922 276.811 36.5665C275.536 36.7905 262.082 36.442 262.082 36.442V40.4496C262.082 40.4496 269.309 40.6487 274.56 40.6487C276.061 40.6487 277.336 40.6238 278.161 40.574C281.737 40.35 283.463 38.3088 283.463 35.4462C283.463 32.6085 282.663 31.339 279.912 30.7416C277.111 30.1443 266.633 29.1984 266.633 29.1984ZM151.503 30.4679C151.378 30.6173 151.178 30.7417 150.978 30.7417H150.128C149.903 30.7417 149.728 30.6172 149.603 30.4679L143.426 23.3985H138.4V24.3195L147.902 34.9733L144.351 39.4539V40.4496H149.078L162.206 24.2946V23.3985H157.405L151.503 30.4679ZM121.045 29.1984V28.6259C121.045 27.8045 121.37 27.2568 122.771 27.1075C124.171 26.983 136.199 27.2569 136.199 27.2569V23.3986C136.199 23.3986 130.998 23.1995 126.547 23.1995C124.646 23.1995 122.896 23.2493 121.77 23.3737C117.844 23.8218 116.219 25.6638 116.219 28.4517C116.219 30.9658 117.319 32.3349 119.945 32.9323C122.37 33.455 132.948 34.3511 132.948 34.3511V34.8987C132.948 35.8197 132.473 36.3922 131.223 36.5665C129.947 36.7905 116.494 36.442 116.494 36.442V40.4496C116.494 40.4496 123.721 40.6487 128.972 40.6487C130.472 40.6487 131.748 40.6238 132.573 40.574C136.149 40.35 137.874 38.3088 137.874 35.4462C137.874 32.6085 137.074 31.339 134.324 30.7416C131.523 30.1443 121.045 29.1984 121.045 29.1984ZM253.53 0.0249H239.076V17.076H243.878V12.0976H250.079L253.805 17.076H258.631V16.1799L255.131 11.5749C257.031 11.3509 259.807 10.2058 259.807 6.1235C259.807 1.8669 256.581 0.0249 253.53 0.0249ZM254.78 7.4427C254.78 7.9654 254.305 8.4882 253.73 8.4882H243.877V3.7089H253.73C254.305 3.7089 254.78 4.1818 254.78 4.7544V7.4427ZM216.77 17.0511H235.45V13.3173H221.572V10.2805H232.574V6.6462H221.572V3.684H235.325V0H216.77V17.0511ZM195.715 0V17.0511H213.369V13.1181H200.516V0H195.715ZM186.687 0V6.5715H173.509V0H168.708V17.0511H173.509V10.5045H186.687V17.0511H191.489V0H186.687ZM146.402 17.0511H165.082V13.3173H151.203V10.2805H162.206V6.6462H151.203V3.684H164.957V0H146.402L146.402 17.0511ZM121.295 5.7501L127.672 14.6117H131.023L137.374 5.7501V17.0511H142.176V0H136.724L130.398 8.7371C130.273 8.9113 130.073 9.0109 129.873 9.0109H128.947C128.747 9.0109 128.547 8.9113 128.422 8.7371L122.045 0H116.494V17.0511H121.295V5.7501Z" fill="#374151"/>
<path d="M16.0793 25.8544H0V40.4504H19.3598V28.943C19.3598 27.7225 18.7385 25.8544 16.0793 25.8544ZM56.4888 25.8544L38.7444 13.4752L20.3539 0.6725C19.7077 0.2242 18.9621 0 18.1917 0H0.0249V13.4752H24.8521C25.9207 13.4752 26.9645 13.8488 27.8344 14.4466L36.7066 20.5988C37.9989 21.4955 38.7445 23.0647 38.7445 24.6588V40.4504H58.1043V28.943C58.1042 27.7225 57.5077 26.5518 56.4888 25.8544ZM95.3012 25.8544L77.5568 13.4752L59.1662 0.6725C58.5201 0.2242 57.7745 0 57.0041 0H38.8372V13.4752H63.6644C64.733 13.4752 65.7768 13.8488 66.6467 14.4466L75.5189 20.5988C76.8112 21.4955 77.5568 23.0647 77.5568 24.6588V40.4504H96.9166V28.943C96.9165 27.7225 96.3201 26.5518 95.3012 25.8544Z" fill="#BCC493"/>
</g>
<defs>
<clipPath id="clip0_420_1959">
<rect width="283.465" height="40.6488" fill="white"/>
</clipPath>
</defs>
</svg>
