<?xml version="1.0" encoding="utf-8"?>
<!-- Generator: Adobe Illustrator 15.1.0, SVG Export Plug-In  -->
<!DOCTYPE svg PUBLIC "-//W3C//DTD SVG 1.1//EN" "http://www.w3.org/Graphics/SVG/1.1/DTD/svg11.dtd" [
	<!ENTITY ns_flows "http://ns.adobe.com/Flows/1.0/">
]>
<svg version="1.1"
	 xmlns="http://www.w3.org/2000/svg" xmlns:xlink="http://www.w3.org/1999/xlink" xmlns:a="http://ns.adobe.com/AdobeSVGViewerExtensions/3.0/"
	 x="0px" y="0px" width="284px" height="188px" viewBox="0 0 284 188" overflow="visible" enable-background="new 0 0 284 188"
	 xml:space="preserve">
<defs>
</defs>
<polygon points="0.001,129.528 0.001,129.672 34.201,129.672 16.993,112.464 "/>
<polygon points="249.48,129.672 283.608,129.672 283.608,129.528 266.617,112.464 "/>
<polygon points="56.881,72.648 113.617,129.313 113.617,52.2 89.568,52.2 141.841,0 0.001,0 0.001,55.584 73.944,55.584 "/>
<polygon points="141.841,0 193.969,52.2 169.921,52.2 169.921,129.456 226.729,72.648 209.736,55.584 283.608,55.584 283.608,0 "/>
<polygon fill="#FFED00" points="56.881,72.648 73.944,55.584 0.001,55.584 0.001,129.528 16.993,112.464 34.201,129.672 
	113.617,129.672 113.617,129.313 "/>
<polygon fill="#FFED00" points="169.921,52.2 193.969,52.2 141.841,0 89.568,52.2 113.617,52.2 113.617,129.313 113.977,129.672 
	169.705,129.672 169.921,129.456 "/>
<polygon fill="#FFED00" points="113.617,129.672 113.977,129.672 113.617,129.313 "/>
<polygon fill="#FFED00" points="226.729,72.648 169.921,129.456 169.921,129.672 249.48,129.672 266.617,112.464 283.608,129.528 
	283.608,55.584 209.736,55.584 "/>
<polygon fill="#FFED00" points="169.705,129.672 169.921,129.672 169.921,129.456 "/>
<path d="M35.019,186.832v-23.935c0-5.773-3.096-8.661-9.286-8.661c-7.922,0-11.883,4.068-11.883,12.204v20.392H0v-42.201h13.378
	v6.141h0.157c1.363-1.941,3.541-3.595,6.532-4.96c3.305-1.521,6.872-2.283,10.702-2.283c4.669,0,8.578,0.972,11.726,2.913
	c4.249,2.625,6.374,6.719,6.374,12.283v28.107H35.019z"/>
<path d="M90.969,174.234h14.794c-3.777,9.448-12.539,14.172-26.284,14.172c-8.709,0-15.423-1.783-20.145-5.354
	c-5.142-3.884-7.712-9.657-7.712-17.321c0-7.663,2.57-13.436,7.712-17.321c4.722-3.569,11.436-5.354,20.145-5.354
	c8.972,0,15.765,2.205,20.382,6.613c4.459,4.251,6.689,10.42,6.689,18.502v1.26H65.945v0.158c0,2.414,1.075,4.619,3.227,6.613
	c2.569,2.361,6.006,3.543,10.308,3.543C85.146,179.746,88.975,177.909,90.969,174.234z M65.945,161.244h26.284v-0.158
	c0-1.836-0.918-3.673-2.755-5.511c-2.466-2.571-5.902-3.858-10.309-3.858c-4.617,0-8.184,1.444-10.702,4.331
	c-1.68,1.89-2.518,3.569-2.518,5.038V161.244z"/>
<path d="M144.323,186.832v-23.935c0-5.773-3.096-8.661-9.286-8.661c-7.922,0-11.883,4.068-11.883,12.204v20.392h-13.85v-42.201
	h13.377v6.141h0.157c1.364-1.941,3.541-3.595,6.532-4.96c3.305-1.521,6.873-2.283,10.703-2.283c4.669,0,8.577,0.972,11.725,2.913
	c4.25,2.625,6.375,6.719,6.375,12.283v28.107H144.323z"/>
<path d="M214.99,160.221h-14.322c-1.47-4.934-5.3-7.401-11.489-7.401c-4.303,0-7.634,1.116-9.994,3.347
	c-2.361,2.231-3.542,5.42-3.542,9.565c0,4.147,1.181,7.336,3.542,9.566c2.36,2.231,5.691,3.346,9.994,3.346
	c3.095,0,5.691-0.773,7.791-2.322c2.097-1.548,3.33-3.634,3.698-6.26h14.322c-1.154,6.981-4.25,11.916-9.286,14.802
	c-4.093,2.362-9.994,3.543-17.706,3.543c-8.29,0-14.716-1.783-19.28-5.354c-4.932-3.884-7.397-9.657-7.397-17.321
	c0-7.663,2.57-13.436,7.713-17.321c4.721-3.569,11.437-5.354,20.146-5.354C204.234,143.057,212.838,148.778,214.99,160.221z"/>
<path d="M217.271,186.832v-57.16h13.85v30.706l18.336-15.747h19.28l-20.066,16.061l21.325,26.14h-18.335l-13.771-17.558
	l-6.769,5.433v12.125H217.271z"/>
<path d="M269.76,186.832v-42.201h13.85v42.201H269.76z"/>
</svg>
